<?xml version="1.0" standalone="no"?>
<!DOCTYPE svg PUBLIC "-//W3C//DTD SVG 20010904//EN"
 "http://www.w3.org/TR/2001/REC-SVG-20010904/DTD/svg10.dtd">
<svg version="1.0" xmlns="http://www.w3.org/2000/svg"
 width="512.000000pt" height="512.000000pt" viewBox="0 0 512.000000 512.000000"
 preserveAspectRatio="xMidYMid meet">
<metadata>
Created by potrace 1.14, written by Peter Selinger 2001-2017
</metadata>
<g transform="translate(0.000000,512.000000) scale(0.100000,-0.100000)"
fill="#000000" stroke="none">
<path d="M2871 5098 c-17 -13 -461 -542 -986 -1177 -768 -927 -955 -1159 -955
-1182 0 -15 10 -39 22 -53 15 -17 278 -143 763 -366 l740 -340 -977 0 -976 0
-31 -26 c-54 -45 -49 -57 159 -414 160 -274 187 -326 172 -331 -9 -4 -69 -19
-132 -34 -141 -33 -271 -80 -415 -151 -148 -72 -236 -132 -248 -167 -13 -40 7
-82 50 -102 42 -20 62 -14 160 45 320 194 742 290 1145 260 316 -23 545 -81
938 -235 577 -227 961 -325 1430 -366 185 -16 527 -6 698 20 230 35 521 122
647 194 35 20 40 27 43 64 4 56 -10 80 -57 94 -34 10 -45 8 -117 -24 -178 -78
-422 -141 -649 -167 -106 -13 -439 -19 -449 -9 -4 3 156 278 355 610 199 332
366 615 371 628 6 17 5 34 -3 53 -25 60 1 58 -809 58 l-740 0 0 1536 c0 1034
-3 1542 -10 1555 -12 22 -60 49 -88 49 -10 0 -33 -10 -51 -22z m-43 -1362 l-3
-345 -392 202 c-215 111 -392 207 -393 212 0 6 176 224 392 485 l393 474 3
-341 c1 -188 1 -497 0 -687z m-246 -424 l248 -127 0 -69 c0 -61 -2 -67 -17
-61 -40 15 -983 497 -983 502 0 3 18 27 40 54 l41 48 212 -110 c117 -60 323
-166 459 -237z m246 -886 c1 -255 -1 -416 -7 -414 -72 26 -1640 756 -1638 762
2 5 120 150 262 322 l259 314 561 -283 560 -283 3 -418z m1482 -630 c0 -3
-154 -262 -341 -575 -292 -489 -345 -571 -364 -571 -53 0 -339 54 -501 95
-217 55 -437 128 -714 238 -483 190 -728 245 -1131 254 l-236 5 -158 272 c-87
149 -160 274 -162 279 -2 4 808 7 1801 7 993 0 1806 -2 1806 -4z"/>
<path d="M3424 1619 c-64 -24 -126 -77 -162 -137 -24 -41 -27 -57 -27 -132 0
-75 3 -91 27 -132 107 -181 364 -214 513 -64 114 114 114 278 0 392 -90 90
-231 120 -351 73z m186 -174 c32 -17 60 -61 60 -95 0 -84 -108 -138 -190 -95
-32 17 -60 61 -60 95 0 29 26 76 52 94 29 20 100 20 138 1z"/>
<path d="M1015 779 c-298 -26 -606 -120 -859 -261 -155 -88 -187 -138 -127
-199 41 -41 86 -39 157 6 76 49 223 121 324 161 258 99 608 143 910 115 277
-26 525 -91 870 -228 504 -199 872 -301 1278 -352 206 -26 617 -29 795 -6 230
30 444 86 627 162 111 47 130 64 130 119 0 34 -5 47 -26 63 -37 29 -74 26
-163 -13 -157 -69 -376 -127 -591 -158 -146 -20 -572 -17 -740 5 -396 54 -736
147 -1215 335 -253 99 -379 141 -530 178 -292 71 -576 95 -840 73z"/>
</g>
</svg>
